# xmcd
#
# Track frame offsets:
#	150
#	22407
#	40682
#	56362
#	74067
#	92082
#	107995
#	127882
#
# Disc length: 1951 seconds
#
# Revision: 1
# Processed by: cddbd v1.5.2PL0 Copyright (c) Steve Scherf et al.
# Submitted via: EasyCDDAExtractor 15.3.0.1
#
DISCID=6f079d08
DTITLE=Pandora - Grandes Exitos
DYEAR=1993
DGENRE=Latin
TTITLE0=Popurri (Debo Hacerlo, Caray, Querida, Me Nace Del Corazon)
TTITLE1=Hay Que Empezar Desde Abajo
TTITLE2=Ni Tu Ni Yo
TTITLE3=No Puedo Dejar De Pensar En Ti
TTITLE4=Como Te Va Mi Amor
TTITLE5=Buenaventura
TTITLE6=Con Tu Amor
TTITLE7=Amor Canalla
EXTD=
EXTT0=
EXTT1=
EXTT2=
EXTT3=
EXTT4=
EXTT5=
EXTT6=
EXTT7=
PLAYORDER=
